<svg width="50" height="55" viewBox="0 0 50 55" fill="none" xmlns="http://www.w3.org/2000/svg">
<path id="Vector" d="M25.8422 46.75C26.4547 46.7042 26.9779 46.4865 27.4117 46.0969C27.8456 45.7073 28.0625 45.2375 28.0625 44.6875C28.0625 44.0458 27.8328 43.5302 27.3734 43.1406C26.9141 42.751 26.3271 42.5792 25.6125 42.625C23.5198 42.7625 21.2995 42.2469 18.9516 41.0781C16.6036 39.9094 15.1234 37.7896 14.5109 34.7188C14.4089 34.2146 14.1409 33.8021 13.707 33.4813C13.2732 33.1604 12.7755 33 12.2141 33C11.4995 33 10.9125 33.2406 10.4531 33.7219C9.99375 34.2031 9.84063 34.7646 9.99375 35.4062C10.8615 39.5771 12.9031 42.5563 16.1188 44.3438C19.3344 46.1312 22.5755 46.9333 25.8422 46.75ZM25 55C18.0073 55 12.1758 52.8458 7.50547 48.5375C2.83516 44.2292 0.5 38.8667 0.5 32.45C0.5 27.8667 2.52891 22.8823 6.58672 17.4969C10.6445 12.1115 16.7823 6.27917 25 0C33.2177 6.27917 39.3555 12.1115 43.4133 17.4969C47.4711 22.8823 49.5 27.8667 49.5 32.45C49.5 38.8667 47.1648 44.2292 42.4945 48.5375C37.8242 52.8458 31.9927 55 25 55ZM25 49.5C30.3083 49.5 34.6979 47.8844 38.1688 44.6531C41.6396 41.4219 43.375 37.3542 43.375 32.45C43.375 29.1042 41.831 25.3229 38.743 21.1063C35.6549 16.8896 31.074 12.2833 25 7.2875C18.926 12.2833 14.3451 16.8896 11.257 21.1063C8.16901 25.3229 6.625 29.1042 6.625 32.45C6.625 37.3542 8.36042 41.4219 11.8313 44.6531C15.3021 47.8844 19.6917 49.5 25 49.5Z" fill="black" fill-opacity="0.5"/>
</svg>
