<svg width="50" height="55" viewBox="0 0 50 55" fill="none" xmlns="http://www.w3.org/2000/svg">
<path id="Vector" d="M15.6083 49.5H34.3917L37.1139 38.5H12.8861L15.6083 49.5ZM15.6083 55C14.338 55 13.2264 54.6104 12.2736 53.8313C11.3208 53.0521 10.6856 52.0438 10.3681 50.8063L7.30556 38.5H42.6944L39.6319 50.8063C39.3144 52.0438 38.6792 53.0521 37.7264 53.8313C36.7736 54.6104 35.662 55 34.3917 55H15.6083ZM5.94444 33H44.0556V27.5H5.94444V33ZM25 16.5C25 11.9167 26.588 8.02083 29.7639 4.8125C32.9398 1.60417 36.7963 0 41.3333 0C41.3333 4.125 40.0403 7.7 37.4542 10.725C34.8681 13.75 31.6241 15.5833 27.7222 16.225V22H49.5V33C49.5 34.5125 48.9669 35.8073 47.9007 36.8844C46.8345 37.9615 45.5528 38.5 44.0556 38.5H5.94444C4.44722 38.5 3.16551 37.9615 2.09931 36.8844C1.0331 35.8073 0.5 34.5125 0.5 33V22H22.2778V16.225C18.3759 15.5833 15.1319 13.75 12.5458 10.725C9.95972 7.7 8.66667 4.125 8.66667 0C13.2037 0 17.0602 1.60417 20.2361 4.8125C23.412 8.02083 25 11.9167 25 16.5Z" fill="black" fill-opacity="0.5"/>
</svg>
