<svg width="50" height="55" viewBox="0 0 50 55" fill="none" xmlns="http://www.w3.org/2000/svg">
<path id="Vector" d="M31.8299 52.0438L21.1777 40.3563L24.6867 36.5063L31.8299 44.3438L45.991 28.8063L49.5 32.6562L31.8299 52.0438ZM45.6151 24.75H40.6023V11H35.5895V19.25H10.5256V11H5.51279V49.5H20.5512V55H5.51279C4.13427 55 2.95418 54.4615 1.97251 53.3844C0.990835 52.3073 0.5 51.0125 0.5 49.5V11C0.5 9.4875 0.990835 8.19271 1.97251 7.11563C2.95418 6.03854 4.13427 5.5 5.51279 5.5H15.977C16.4365 3.89583 17.3346 2.57812 18.6714 1.54688C20.0081 0.515625 21.4702 0 23.0575 0C24.7285 0 26.2219 0.515625 27.5377 1.54688C28.8536 2.57812 29.7413 3.89583 30.2008 5.5H40.6023C41.9808 5.5 43.1609 6.03854 44.1426 7.11563C45.1243 8.19271 45.6151 9.4875 45.6151 11V24.75ZM23.0575 11C23.7677 11 24.363 10.7365 24.8433 10.2094C25.3237 9.68229 25.5639 9.02917 25.5639 8.25C25.5639 7.47083 25.3237 6.81771 24.8433 6.29063C24.363 5.76354 23.7677 5.5 23.0575 5.5C22.3474 5.5 21.7521 5.76354 21.2717 6.29063C20.7913 6.81771 20.5512 7.47083 20.5512 8.25C20.5512 9.02917 20.7913 9.68229 21.2717 10.2094C21.7521 10.7365 22.3474 11 23.0575 11Z" fill="black" fill-opacity="0.5"/>
</svg>
